<svg xmlns="http://www.w3.org/2000/svg" viewBox="0 0 1600 900" role="img" aria-label="Figure 7 Adaptation finance gap"><defs><linearGradient id="bg" x1="0" x2="1"><stop stop-color="#020617"/><stop offset="1" stop-color="#071426"/></linearGradient><linearGradient id="bar" x1="0" x2="0" y1="1" y2="0"><stop stop-color="#0ea5e9"/><stop offset="1" stop-color="#67e8f9"/></linearGradient><filter id="glow"><feGaussianBlur stdDeviation="4" result="b"/><feMerge><feMergeNode in="b"/><feMergeNode in="SourceGraphic"/></feMerge></filter></defs><rect width="1600" height="900" fill="url(#bg)"/><rect x="28" y="28" width="1544" height="844" rx="34" fill="none" stroke="#22c7f3" stroke-width="3" opacity=".75"/><text x="80" y="95" fill="#f2b544" font-size="42" font-family="Arial" font-weight="800">FIGURE 7</text><text x="80" y="165" fill="#f8fbff" font-size="68" font-family="Arial" font-weight="900">ADAPTATION FINANCE GAP</text><text x="80" y="222" fill="#d8e7ff" font-size="34" font-family="Arial">International public adaptation finance versus annual needs</text><g transform="translate(140 350)"><line x1="0" y1="300" x2="560" y2="300" stroke="#9fb2ca"/><line x1="0" y1="0" x2="0" y2="300" stroke="#9fb2ca"/><rect x="95" y="135" width="120" height="165" fill="url(#bar)" filter="url(#glow)"/><text x="125" y="120" fill="#f8fbff" font-size="38" font-family="Arial">22</text><text x="105" y="345" fill="#f8fbff" font-size="34" font-family="Arial">2021</text><rect x="350" y="90" width="120" height="210" fill="url(#bar)" filter="url(#glow)"/><text x="378" y="75" fill="#f8fbff" font-size="38" font-family="Arial">28</text><text x="360" y="345" fill="#f8fbff" font-size="34" font-family="Arial">2022</text><text x="0" y="-42" fill="#22c7f3" font-size="30" font-family="Arial">US$ billion</text></g><rect x="840" y="340" width="600" height="300" rx="30" fill="rgba(242,181,68,.08)" stroke="#f2b544"/><text x="935" y="430" fill="#f8fbff" font-size="38" font-family="Arial" font-weight="800">Adaptation finance gap</text><text x="910" y="535" fill="#f2b544" font-size="78" font-family="Arial" font-weight="900" filter="url(#glow)">US$187–359B</text><text x="985" y="592" fill="#d8e7ff" font-size="32" font-family="Arial">per year</text><text x="80" y="825" fill="#22c7f3" font-size="28" font-family="Arial">Source:</text><text x="190" y="825" fill="#f8fbff" font-size="28" font-family="Arial">UNEP Adaptation Gap Report 2024</text><image href="/assets/logo.png" x="1035" y="735" width="390" height="115" preserveAspectRatio="xMidYMid meet"/></svg>