<svg xmlns="http://www.w3.org/2000/svg" viewBox="0 0 1600 900" role="img" aria-label="Figure 10 Climate change global system-shaping force"><defs><linearGradient id="bg" x1="0" x2="1"><stop stop-color="#020617"/><stop offset="1" stop-color="#071426"/></linearGradient><radialGradient id="hot" cx="50%" cy="50%" r="60%"><stop stop-color="#f97316"/><stop offset=".45" stop-color="#f2b544" stop-opacity=".65"/><stop offset="1" stop-color="#22c7f3" stop-opacity=".12"/></radialGradient><filter id="glow"><feGaussianBlur stdDeviation="4" result="b"/><feMerge><feMergeNode in="b"/><feMergeNode in="SourceGraphic"/></feMerge></filter></defs><rect width="1600" height="900" fill="url(#bg)"/><rect x="28" y="28" width="1544" height="844" rx="34" fill="none" stroke="#22c7f3" stroke-width="3" opacity=".75"/><text x="725" y="86" fill="#f2b544" font-size="42" font-family="Arial" font-weight="800">FIGURE 10</text><text x="120" y="160" fill="#f8fbff" font-size="58" font-family="Arial" font-weight="900">CLIMATE CHANGE: A GLOBAL SYSTEM-SHAPING FORCE</text><text x="505" y="215" fill="#22c7f3" font-size="34" font-family="Arial" font-style="italic">Already impacting today. Defining tomorrow.</text><ellipse cx="880" cy="455" rx="430" ry="210" fill="url(#hot)" opacity=".35"/><path d="M470 470 C610 350 760 340 900 420 C1030 490 1160 430 1320 350" fill="none" stroke="#f2b544" stroke-width="7" opacity=".75" filter="url(#glow)"/><path d="M490 505 C640 565 790 540 930 590 C1080 640 1200 575 1350 610" fill="none" stroke="#22c7f3" stroke-width="6" opacity=".75" filter="url(#glow)"/><g transform="translate(80 250)" font-family="Arial"><g fill="none" stroke="#22c7f3"><circle cx="42" cy="35" r="30"/><circle cx="42" cy="105" r="30"/><circle cx="42" cy="175" r="30"/><circle cx="42" cy="245" r="30"/><circle cx="42" cy="315" r="30"/><circle cx="42" cy="385" r="30"/><circle cx="42" cy="455" r="30"/><circle cx="42" cy="525" r="30"/></g><text x="95" y="45" fill="#f8fbff" font-size="28">Rising temperatures</text><text x="95" y="115" fill="#f8fbff" font-size="28">Extreme weather</text><text x="95" y="185" fill="#f8fbff" font-size="28">Sea-level rise</text><text x="95" y="255" fill="#f8fbff" font-size="28">Food insecurity</text><text x="95" y="325" fill="#f8fbff" font-size="28">Infrastructure risk</text><text x="95" y="395" fill="#f8fbff" font-size="28">Displacement</text><text x="95" y="465" fill="#f8fbff" font-size="28">Economic losses</text><text x="95" y="535" fill="#f8fbff" font-size="28">Governance pressure</text></g><rect x="220" y="700" width="1160" height="70" rx="20" fill="rgba(242,181,68,.10)" stroke="#f2b544"/><text x="800" y="746" fill="#f2b544" font-size="38" font-family="Arial" font-weight="900" text-anchor="middle">By 2035, resilience will define development, security and prosperity.</text><image href="/assets/logo.png" x="610" y="775" width="380" height="105" preserveAspectRatio="xMidYMid meet"/></svg>